<svg width="28" height="28" viewBox="0 0 28 28" fill="none" xmlns="http://www.w3.org/2000/svg">
<path d="M0.858887 8.58984H26.6281V18.8975H0.858887V8.58984Z" fill="#F1C142"/>
<path d="M4.29478 3.43555H23.1922C25.0888 3.43555 26.6281 4.97483 26.6281 6.87144V9.44837H0.858887V6.87144C0.858887 4.97483 2.39817 3.43555 4.29478 3.43555Z" fill="#A0251E"/>
<path d="M23.1925 24.0518L4.29509 24.0518C2.39847 24.0518 0.859188 22.5125 0.859188 20.6159V18.0389L26.6284 18.0389V20.6159C26.6284 22.5125 25.0891 24.0518 23.1925 24.0518Z" fill="#A0251E"/>
<path opacity="0.15" d="M23.1922 3.43555H4.29478C2.39731 3.43555 0.858887 4.97397 0.858887 6.87144V20.615C0.858887 22.5125 2.39731 24.0509 4.29478 24.0509H23.1922C25.0897 24.0509 26.6281 22.5125 26.6281 20.615V6.87144C26.6281 4.97397 25.0897 3.43555 23.1922 3.43555ZM25.7691 20.615C25.7691 22.0358 24.613 23.192 23.1922 23.192H4.29478C2.87404 23.192 1.71786 22.0358 1.71786 20.615V6.87144C1.71786 5.4507 2.87404 4.29452 4.29478 4.29452H23.1922C24.613 4.29452 25.7691 5.4507 25.7691 6.87144V20.615Z" fill="black"/>
<path opacity="0.2" d="M23.1921 4.29492H4.2947C2.87138 4.29492 1.71777 5.44852 1.71777 6.87184V7.73082C1.71777 6.3075 2.87138 5.1539 4.2947 5.1539H23.1921C24.6155 5.1539 25.7691 6.3075 25.7691 7.73082V6.87184C25.7691 5.44852 24.6155 4.29492 23.1921 4.29492Z" fill="white"/>
<path d="M10.8352 11.2448C10.8919 11.2182 10.8825 11.1246 10.8215 11.11C10.8704 11.0696 10.8386 10.9811 10.7742 10.9828C10.8086 10.9339 10.7639 10.8591 10.7038 10.8712C10.7218 10.8179 10.6677 10.7621 10.6145 10.781C10.623 10.7226 10.5535 10.6788 10.5054 10.7114C10.5088 10.653 10.4358 10.6152 10.3903 10.6521C10.3817 10.5911 10.2958 10.5705 10.2614 10.6221C10.2494 10.5637 10.1661 10.5473 10.1334 10.598C10.1102 10.5508 10.0355 10.549 10.0097 10.5946C9.98396 10.5542 9.91782 10.5559 9.89291 10.5963C9.87745 10.5722 9.84395 10.5585 9.81561 10.5671C9.82334 10.5113 9.75891 10.4683 9.71081 10.4967C9.71253 10.4365 9.63608 10.4013 9.59227 10.4417C9.58111 10.3867 9.5038 10.3669 9.46858 10.4108C9.4514 10.3566 9.37066 10.3463 9.34145 10.3962C9.31053 10.348 9.23064 10.3601 9.21518 10.415C9.17996 10.3678 9.09922 10.3884 9.08977 10.446C9.08032 10.4391 9.07002 10.4339 9.05799 10.4322C9.06314 10.4254 9.06658 10.4185 9.07088 10.4108H9.07259C9.12241 10.3188 9.07603 10.1909 8.98154 10.1548V10.0706H9.06658V9.93832H8.98154V9.85156H8.85184V9.93832H8.7668V10.0706H8.85184V10.1531C8.75477 10.1874 8.70667 10.3171 8.75735 10.4099H8.75907C8.7625 10.4168 8.7668 10.4245 8.77109 10.4305C8.75821 10.4322 8.74618 10.4374 8.73673 10.4451C8.72728 10.3876 8.64568 10.3669 8.61132 10.4142C8.59586 10.3592 8.51598 10.3472 8.48505 10.3953C8.45585 10.3463 8.37511 10.3558 8.35793 10.4099C8.32271 10.3652 8.2454 10.3858 8.23423 10.4408C8.19043 10.4004 8.11484 10.4357 8.1157 10.4958C8.06759 10.4674 8.00317 10.5104 8.0109 10.5662C7.9817 10.5576 7.94905 10.5714 7.93273 10.5954C7.90782 10.5551 7.84168 10.5533 7.81591 10.5937C7.79014 10.5473 7.71541 10.5499 7.69308 10.5972C7.6613 10.5465 7.57712 10.5628 7.56509 10.6212C7.53159 10.5697 7.44484 10.5894 7.43625 10.6513C7.39072 10.6143 7.31771 10.6513 7.32114 10.7105C7.27304 10.6779 7.20346 10.7217 7.21205 10.7801C7.1588 10.7621 7.10468 10.8179 7.12272 10.8703C7.07977 10.8626 7.04026 10.8987 7.04026 10.9425C7.04026 10.9571 7.04455 10.9708 7.05229 10.9828C6.98786 10.9811 6.95694 11.0696 7.00504 11.11C6.94405 11.1246 6.93461 11.2173 6.9913 11.2448C6.9389 11.2749 6.95093 11.3634 7.0102 11.3771C6.99903 11.39 6.99216 11.4063 6.99216 11.4243C6.99216 11.4604 7.01793 11.4905 7.05143 11.4965C7.03167 11.5377 7.05916 11.591 7.10296 11.5979C7.0918 11.6236 7.09266 11.6606 7.09266 11.6889C7.16996 11.6726 7.26445 11.6941 7.29795 11.7834C7.28507 11.8418 7.35379 11.9174 7.41649 11.9088C7.46803 11.9818 7.53073 12.0505 7.63209 12.078C7.61405 12.1579 7.68707 12.1579 7.73775 12.1794C7.72658 12.1931 7.70081 12.2335 7.6905 12.249C7.71112 12.2601 7.76523 12.2842 7.78757 12.2928C7.79186 12.3091 7.791 12.3168 7.791 12.3194C7.86917 12.7497 9.96764 12.7506 10.0381 12.3185V12.3168C10.0381 12.3168 10.0415 12.3194 10.0415 12.3203C10.0415 12.3177 10.0407 12.3108 10.045 12.2936L10.1463 12.2576L10.0931 12.1802C10.1412 12.1562 10.2176 12.1588 10.1987 12.078C10.3009 12.0505 10.3645 11.9818 10.416 11.9079C10.4787 11.9165 10.5475 11.8409 10.5346 11.7825C10.5681 11.6932 10.6634 11.6717 10.7399 11.6881C10.7399 11.658 10.7416 11.621 10.7287 11.5944C10.7665 11.5824 10.7888 11.5334 10.7708 11.4956C10.824 11.4879 10.849 11.4158 10.812 11.3762C10.8713 11.3625 10.8833 11.2732 10.8309 11.244L10.8352 11.2448ZM10.581 11.1469C10.581 11.189 10.5706 11.2311 10.5517 11.268C10.3817 11.1503 10.142 11.0636 9.95562 11.0842C9.9539 11.0765 9.95047 11.0696 9.94617 11.0636C9.94617 11.0636 9.94617 11.0627 9.94617 11.0619C10.0011 11.0438 10.0097 10.9588 9.95905 10.9304C10.0003 10.9029 9.99771 10.8334 9.95476 10.8093C10.2365 10.7758 10.581 10.8866 10.581 11.1469ZM9.75977 10.9107C9.75977 10.9648 9.74259 11.0172 9.71339 11.061C9.47803 11.0103 9.35949 10.9158 9.0975 10.9021C9.09149 10.8317 9.09321 10.7552 9.08805 10.6839C9.29936 10.5207 9.78297 10.6307 9.75977 10.9107ZM8.73673 10.7698C8.73502 10.8128 8.73416 10.8574 8.73072 10.8995C8.47131 10.9107 8.34504 11.0043 8.11312 11.0584C7.88979 10.7097 8.46959 10.4778 8.74017 10.6839C8.73845 10.7123 8.73587 10.7406 8.73673 10.7698ZM7.83825 10.8703C7.83825 10.8944 7.85027 10.9158 7.86745 10.9296C7.81763 10.9579 7.82536 11.043 7.88034 11.0601C7.88034 11.0601 7.88034 11.061 7.88034 11.0619C7.87604 11.0679 7.87346 11.0747 7.87089 11.0825C7.68277 11.0619 7.4457 11.14 7.27132 11.2594C7.13818 10.9356 7.54877 10.7647 7.87089 10.8085C7.85113 10.8213 7.83739 10.8437 7.83739 10.8703H7.83825ZM7.79702 12.316V12.3177C7.79702 12.3177 7.7953 12.3177 7.79444 12.3194C7.79444 12.3185 7.79616 12.316 7.79702 12.316Z" fill="#9B8028"/>
<path d="M12.1396 14.4785C12.3758 13.9202 12.3123 14.0422 11.8656 13.8025V13.0526C11.9936 12.9676 11.7849 12.9487 11.9086 12.8508H11.9704V12.5596H11.12V12.8508H11.1844C11.3013 12.9384 11.1063 12.9762 11.2274 13.0526V13.7054C10.7773 13.6994 10.5651 13.7621 10.6442 14.2002H10.6776L10.6914 14.2311C10.8116 14.177 11.0109 14.1392 11.2274 14.1289V14.3213C10.8975 14.3462 10.8666 14.8436 11.2274 15.0085V16.1174C11.1819 16.132 11.1681 16.1939 11.2068 16.2231C11.2128 16.2789 11.157 16.3021 11.1097 16.2944C11.1097 16.3167 11.1097 16.498 11.1097 16.5255C11.0719 16.5461 11.0126 16.5512 10.9637 16.5495V16.6423V16.7342V16.8261V16.9189V17.0786C11.358 17.0202 11.7325 17.0202 12.1259 17.0786V16.5495C12.0769 16.5512 12.0194 16.5461 11.9799 16.5255C11.9799 16.4971 11.9799 16.3184 11.9799 16.2953C11.9335 16.3021 11.8785 16.2806 11.8828 16.2257C11.924 16.1973 11.912 16.1329 11.8648 16.1174V15.3169C11.8974 15.3315 11.9275 15.3469 11.9549 15.3624C11.8648 15.4646 11.8759 15.6424 11.9816 15.7309L12.0305 15.6854C12.2212 15.4028 12.3707 15.0472 11.8648 14.9157V14.6151C12.0168 14.5988 12.113 14.5515 12.1388 14.4794L12.1396 14.4785Z" fill="#9B8028"/>
<path d="M7.18097 13.7937C7.04955 13.7405 6.84597 13.7096 6.62006 13.7061V13.0533C6.70081 13.0181 6.64927 12.9545 6.6089 12.9167C6.62607 12.8841 6.68792 12.8678 6.657 12.8179H6.69393V12.5938H5.91055V12.8179H5.94405C5.91227 12.8686 5.97755 12.8849 5.99301 12.9167C5.95264 12.9528 5.90024 13.0181 5.98098 13.0533V13.8032C5.42781 13.9174 5.45615 14.4457 5.98098 14.6149V14.9156C5.47419 15.0478 5.62451 15.4026 5.8152 15.6852L5.86416 15.7307C5.96982 15.6422 5.98098 15.4644 5.89079 15.3622C5.91828 15.3468 5.94834 15.3313 5.98098 15.3167V16.1173C5.93374 16.1327 5.92172 16.1971 5.96295 16.2255C5.96724 16.2805 5.91227 16.3019 5.86588 16.2951C5.86588 16.3174 5.86588 16.4978 5.86588 16.5253C5.82723 16.5459 5.76882 16.5519 5.71986 16.5493V16.8938V17.0785C6.11413 17.02 6.48864 17.02 6.88119 17.0785V16.9187V16.8259V16.734V16.6421V16.5493C6.83309 16.551 6.77468 16.5459 6.73602 16.5253C6.73602 16.4969 6.73602 16.3183 6.73602 16.2942C6.68878 16.3011 6.63381 16.2787 6.63896 16.2229C6.67761 16.1937 6.66473 16.131 6.61834 16.1164V15.0083C6.97997 14.8434 6.94733 14.3452 6.61834 14.3211V14.1287C7.11225 14.1588 7.30209 14.3985 7.17925 13.792L7.18097 13.7937Z" fill="#9B8028"/>
<path d="M10.7638 12.4834H7.0874L7.08998 14.6927V15.9683C7.08998 16.3393 7.28411 16.6743 7.59763 16.8436C8.00393 17.06 8.47722 17.1794 8.93076 17.1794C9.3843 17.1794 9.84471 17.0634 10.257 16.8436C10.5697 16.6743 10.7647 16.3393 10.7647 15.9683L10.7638 12.4834Z" fill="#A0251E"/>
</svg>
