<svg width="29" height="28" viewBox="0 0 29 28" fill="none" xmlns="http://www.w3.org/2000/svg">
<g filter="url(#filter0_f_241_2959)">
<path d="M23.4999 14.79C23.3426 16.4922 22.7038 18.1144 21.6581 19.4668C20.6125 20.8192 19.2034 21.8458 17.5956 22.4265C15.9878 23.0073 14.2479 23.1181 12.5794 22.7461C10.9109 22.3741 9.3829 21.5345 8.17413 20.3258C6.96536 19.117 6.12584 17.589 5.75381 15.9205C5.38178 14.252 5.49262 12.5121 6.07336 10.9043C6.65411 9.29651 7.68073 7.88737 9.03311 6.84175C10.3855 5.79614 12.0077 5.15731 13.7099 5C12.7133 6.34827 12.2338 8.00945 12.3584 9.68141C12.4831 11.3534 13.2038 12.9251 14.3893 14.1106C15.5748 15.2961 17.1465 16.0168 18.8185 16.1415C20.4905 16.2662 22.1516 15.7866 23.4999 14.79Z" fill="white"/>
<path d="M23.4999 14.79C23.3426 16.4922 22.7038 18.1144 21.6581 19.4668C20.6125 20.8192 19.2034 21.8458 17.5956 22.4265C15.9878 23.0073 14.2479 23.1181 12.5794 22.7461C10.9109 22.3741 9.3829 21.5345 8.17413 20.3258C6.96536 19.117 6.12584 17.589 5.75381 15.9205C5.38178 14.252 5.49262 12.5121 6.07336 10.9043C6.65411 9.29651 7.68073 7.88737 9.03311 6.84175C10.3855 5.79614 12.0077 5.15731 13.7099 5C12.7133 6.34827 12.2338 8.00945 12.3584 9.68141C12.4831 11.3534 13.2038 12.9251 14.3893 14.1106C15.5748 15.2961 17.1465 16.0168 18.8185 16.1415C20.4905 16.2662 22.1516 15.7866 23.4999 14.79Z" stroke="white" stroke-linecap="round" stroke-linejoin="round"/>
</g>
<path d="M23.4999 14.79C23.3426 16.4922 22.7038 18.1144 21.6581 19.4668C20.6125 20.8192 19.2034 21.8458 17.5956 22.4265C15.9878 23.0073 14.2479 23.1181 12.5794 22.7461C10.9109 22.3741 9.3829 21.5345 8.17413 20.3258C6.96536 19.117 6.12584 17.589 5.75381 15.9205C5.38178 14.252 5.49262 12.5121 6.07336 10.9043C6.65411 9.29651 7.68073 7.88737 9.03311 6.84175C10.3855 5.79614 12.0077 5.15731 13.7099 5C12.7133 6.34827 12.2338 8.00945 12.3584 9.68141C12.4831 11.3534 13.2038 12.9251 14.3893 14.1106C15.5748 15.2961 17.1465 16.0168 18.8185 16.1415C20.4905 16.2662 22.1516 15.7866 23.4999 14.79Z" fill="white" stroke="white" stroke-linecap="round" stroke-linejoin="round"/>
<defs>
<filter id="filter0_f_241_2959" x="0.538086" y="0" width="27.9619" height="27.9619" filterUnits="userSpaceOnUse" color-interpolation-filters="sRGB">
<feFlood flood-opacity="0" result="BackgroundImageFix"/>
<feBlend mode="normal" in="SourceGraphic" in2="BackgroundImageFix" result="shape"/>
<feGaussianBlur stdDeviation="2.25" result="effect1_foregroundBlur_241_2959"/>
</filter>
</defs>
</svg>
