<svg width="24" height="24" viewBox="0 0 24 24" fill="none" xmlns="http://www.w3.org/2000/svg">
<path d="M20.9999 10.79C20.8426 12.4922 20.2038 14.1144 19.1581 15.4668C18.1125 16.8192 16.7034 17.8458 15.0956 18.4265C13.4878 19.0073 11.7479 19.1181 10.0794 18.7461C8.41092 18.3741 6.8829 17.5345 5.67413 16.3258C4.46536 15.117 3.62584 13.589 3.25381 11.9205C2.88178 10.252 2.99262 8.51208 3.57336 6.9043C4.15411 5.29651 5.18073 3.88737 6.53311 2.84175C7.8855 1.79614 9.5077 1.15731 11.2099 1C10.2133 2.34827 9.73375 4.00945 9.85843 5.68141C9.98312 7.35338 10.7038 8.92506 11.8893 10.1106C13.0748 11.2961 14.6465 12.0168 16.3185 12.1415C17.9905 12.2662 19.6516 11.7866 20.9999 10.79Z" stroke="#343E62" stroke-linecap="round" stroke-linejoin="round"/>
</svg>
