<svg width="28" height="15" viewBox="0 0 28 15" fill="none" xmlns="http://www.w3.org/2000/svg">
<path d="M14 4.02174C12.7717 1.63507 10.2911 0 7.4375 0H0.820316C0.368871 0 0.000878768 0.366682 3.76828e-06 0.820227C-0.00207436 1.88407 0.855644 2.74709 1.91407 2.74709H5.74219C6.19522 2.74709 6.5625 3.11608 6.5625 3.57122C6.5625 4.02636 6.19522 4.39535 5.74219 4.39535H2.46094C2.0095 4.39535 1.6415 4.76203 1.64063 5.21557C1.63855 6.27941 2.49627 7.14244 3.55469 7.14244H7.38281C7.83584 7.14244 8.20313 7.51143 8.20313 7.96657C8.20313 8.4217 7.83584 8.79069 7.38281 8.79069H6.17969C5.72824 8.79069 5.36025 9.15738 5.35938 9.61092C5.3573 10.6748 6.21502 11.5378 7.27344 11.5378H10.7188C12.0728 11.5378 13.1752 12.6426 13.1797 14.0019C13.1812 14.4487 13.5169 14.8343 14 14.8343C14.4812 14.8343 14.8188 14.4505 14.8203 14.0019C14.8248 12.6426 15.9272 11.5378 17.2812 11.5378H20.7266C21.785 11.5378 22.6427 10.6748 22.6406 9.61092C22.6397 9.15738 22.2718 8.79069 21.8203 8.79069H20.6172C20.1642 8.79069 19.7969 8.4217 19.7969 7.96657C19.7969 7.51143 20.1642 7.14244 20.6172 7.14244H24.4453C25.5037 7.14244 26.3614 6.27941 26.3594 5.21557C26.3585 4.76203 25.9905 4.39535 25.5391 4.39535H22.2578C21.8048 4.39535 21.4375 4.02636 21.4375 3.57122C21.4375 3.11608 21.8048 2.74709 22.2578 2.74709H26.0859C27.1444 2.74709 28.0021 1.88407 28 0.820227C27.9991 0.366682 27.6311 0 27.1797 0H20.5625C17.7089 0 15.2283 1.63507 14 4.02174Z" fill="white"/>
</svg>
