<svg width="17" height="24" viewBox="0 0 17 24" fill="none" xmlns="http://www.w3.org/2000/svg">
<path fill-rule="evenodd" clip-rule="evenodd" d="M6.77511 0.300293C7.99517 0.828993 10.4353 2.54525 10.4353 5.18059C10.4353 5.53942 10.4324 5.88773 10.4296 6.22396C10.4068 8.9744 10.3907 10.9144 12.0214 11.159C13.9735 11.4518 14.0956 8.71882 14.0956 8.71882C15.8443 11.2403 17.9998 17.3082 12.6315 21.4076C5.92106 26.532 -1.93677 19.4555 0.430719 12.501C1.27551 10.0195 2.76006 8.31479 4.09335 6.7838C5.841 4.77698 7.32877 3.06863 6.77511 0.300293ZM7.1411 11.4029C7.34444 13.3957 8.55638 16.9908 11.7774 15.4291C12.5094 18.1133 11.1556 21.1753 7.62912 20.7975C4.21292 20.4315 2.01678 14.6971 7.1411 11.4029Z" fill="white"/>
</svg>
