<svg width="23" height="23" viewBox="0 0 23 23" fill="none" xmlns="http://www.w3.org/2000/svg">
<path d="M23 11.5C23 17.8494 17.8542 22.9971 11.5053 23H11.3812C10.8237 22.9942 10.2674 22.9482 9.71654 22.8625C9.26547 22.7928 8.81903 22.6958 8.37967 22.5721C5.96743 21.8914 3.8435 20.4415 2.33091 18.4429C0.81833 16.4444 -0.000135044 14.0064 1.67128e-08 11.5C1.67128e-08 5.14961 5.14721 4.58787e-06 11.5 4.58787e-06H11.5053C13.0698 -0.00139501 14.6181 0.317444 16.0547 0.936892C17.4914 1.55634 18.7861 2.46329 19.8591 3.6019C21.8771 5.73632 23.0011 8.5626 23 11.5Z" fill="white"/>
<path d="M8.59738 8.0797V8.5972H6.92557L2.22974 4.69247C2.51999 4.29763 2.83529 3.92183 3.17369 3.56738L8.59738 8.0797Z" fill="#C8102E"/>
<path d="M20.7846 4.71392L16.1161 8.59517H14.4021V8.11505L19.8445 3.5874L19.8589 3.60226C20.1725 3.93295 20.466 4.28226 20.7376 4.64828L20.7846 4.71392Z" fill="#C8102E"/>
<path d="M8.59788 14.4019V14.9194L3.17419 19.4326C3.12628 19.3847 3.07836 19.333 3.03332 19.2826C2.74801 18.9727 2.48007 18.6471 2.23071 18.3075L6.92655 14.4019H8.59788Z" fill="#C8102E"/>
<path d="M20.7851 18.286C20.496 18.6811 20.182 19.0574 19.845 19.4125L14.4021 14.8844V14.4019H16.1161L20.7851 18.286Z" fill="#C8102E"/>
<path d="M4.593 8.59678H0.369629C0.609561 7.67666 0.963702 6.79018 1.4238 5.95801L4.593 8.59678Z" fill="#012169"/>
<path d="M4.49765 14.4014L1.38978 16.986C0.945646 16.1693 0.603055 15.3013 0.369629 14.4014H4.49765Z" fill="#012169"/>
<path d="M8.59781 16.832V22.6299C8.52497 22.6113 8.45406 22.5916 8.37979 22.571C6.87292 22.1467 5.46899 21.418 4.25464 20.4301L8.59781 16.832Z" fill="#012169"/>
<path d="M8.59733 0.369141V6.07602L4.31885 2.51677C5.57791 1.50767 7.03588 0.775826 8.59733 0.369141Z" fill="#012169"/>
<path d="M18.7465 2.57044L14.4023 6.17138V0.369629L14.468 0.3864C16.0325 0.803755 17.4908 1.54814 18.7465 2.57044Z" fill="#012169"/>
<path d="M22.6304 8.59692H18.5095L21.6102 6.01709C22.0539 6.83235 22.3965 7.69869 22.6304 8.59692Z" fill="#012169"/>
<path d="M18.7832 20.4019C17.5018 21.4525 16.008 22.2128 14.4045 22.6305V16.7593L18.7832 20.4019Z" fill="#012169"/>
<path d="M22.6307 14.4014C22.4023 15.2795 22.0701 16.1274 21.6412 16.9271L18.6057 14.4014H22.6307Z" fill="#012169"/>
<path d="M23 11.3797V11.6093C22.995 12.1455 22.9529 12.6807 22.874 13.2111H13.2111V22.8735C12.684 22.9521 12.1522 22.9944 11.6193 23H11.3797C10.8467 22.9945 10.3146 22.9521 9.78746 22.873V13.2111H0.1265C0.0478699 12.6834 0.00560366 12.1509 0 11.6174C0 11.5422 0 11.4665 0 11.3908C0.00495712 10.8544 0.0470649 10.319 0.126021 9.78842H9.7889V0.1265C10.2907 0.0514836 10.7968 0.00922748 11.304 0L11.6749 0C12.159 0.00692109 12.6421 0.0443705 13.1215 0.112125L13.2111 0.125542V9.78842H22.8735C22.9521 10.3153 22.9944 10.847 23 11.3797Z" fill="#C8102E"/>
</svg>
